<svg xmlns="http://www.w3.org/2000/svg" xmlns:xlink="http://www.w3.org/1999/xlink" id="Layer_1" x="0px" y="0px" width="70.688px" height="97.11px" viewBox="0 0 70.688 97.11" xml:space="preserve"><g>	<path fill="#010101" d="M70.688,79.098c-0.091,0.051-0.072,0.155-0.09,0.229c-0.183,0.771-0.635,1.347-1.266,1.8  c-0.278,0.199-0.592,0.315-0.918,0.403c-0.074-0.014-0.14,0.009-0.204,0.043c0,0,0.002,0,0.002,0  c-0.16-0.023-0.32,0.038-0.48-0.003c-0.001-1.356-0.001-2.712-0.004-4.067c0-0.119,0.023-0.243-0.042-0.355l0.007-0.015  l-0.017-0.006c-0.045-0.228-0.208-0.382-0.344-0.553c-0.019-0.04-0.038-0.08-0.094-0.049c-0.102-0.048-0.204-0.096-0.306-0.144  c-0.097-0.084-0.214-0.05-0.322-0.051c-1.006-0.003-2.011-0.002-3.017-0.002c-0.064,0-0.129-0.002-0.192,0.007  c-0.056,0.007-0.045,0.054-0.037,0.093c-0.003,0.711-0.008,1.423-0.009,2.134c-0.001,0.901-0.344,1.651-0.992,2.267  c-0.251,0.239-0.543,0.43-0.858,0.567c-0.145,0.063-0.301,0.138-0.471,0.14c-0.059-0.013-0.111,0.004-0.159,0.037  c0,0,0.003,0,0.003,0c-0.163,0.002-0.326,0.004-0.488,0.007c-0.002-0.081-0.005-0.161-0.005-0.242c0-3.087,0.002-6.173-0.004-9.26  c-0.001-0.3,0.035-0.597,0.075-0.89c0.029-0.214,0.135-0.427,0.242-0.62c0.329-0.59,0.781-1.063,1.403-1.351  c0.259-0.12,0.536-0.18,0.816-0.226c0.146,0.03,0.293-0.064,0.439,0.004c0.001,1.636,0.003,3.272,0.004,4.908  c-0.01,0.045,0.001,0.082,0.052,0.087c0.064,0.005,0.129,0.005,0.194,0.005c1.268,0,2.536,0,3.804,0  c0.057,0,0.113-0.004,0.17,0.001c0.108,0.01,0.161-0.021,0.16-0.145c-0.009-0.662-0.01-1.323-0.014-1.985  c0.044-0.233,0.046-0.47,0.097-0.705c0.072-0.328,0.21-0.62,0.397-0.889c0.29-0.417,0.643-0.775,1.108-0.997  c0.308-0.148,0.628-0.269,0.978-0.272c0.368-0.002,0.328-0.026,0.331,0.319c0,0.024,0,0.048,0,0.073c0,2.972,0,5.944,0,8.916  c0,0.105,0.003,0.21,0.005,0.315c-0.003,0.088-0.007,0.176-0.008,0.263c-0.001,0.045-0.016,0.099,0.051,0.114  C70.688,79.034,70.688,79.066,70.688,79.098z"></path>	<path fill="#020202" d="M70.645,78.624c-0.002-0.105-0.005-0.21-0.005-0.315c0-2.972,0-5.944,0-8.916c0-0.024,0-0.048,0-0.073  c-0.003-0.345,0.037-0.321-0.331-0.319c0.122-0.053,0.254-0.028,0.38-0.05c0,3.22,0,6.441,0,9.661  C70.673,78.615,70.659,78.619,70.645,78.624z"></path>	<path fill="#828282" d="M0,69.049c0.033,0.003,0.067,0.006,0.1,0.009c-0.065,0.095-0.04,0.203-0.04,0.306  c-0.001,2.98-0.001,5.96-0.002,8.94c0,0.088,0.018,0.177-0.015,0.264C0.029,78.567,0.014,78.565,0,78.564  C0,75.392,0,72.22,0,69.049z"></path>	<path fill="#828282" d="M55.735,97.11c-0.007-0.013-0.009-0.026-0.006-0.04c0.377,0.001,0.753,0.004,1.13,0.002  c0.481-0.002,0.962-0.007,1.443-0.011l0.012-0.01l0.013,0.009c-0.006,0.017-0.012,0.033-0.018,0.05  C57.45,97.11,56.593,97.11,55.735,97.11z"></path>	<path fill="#828282" d="M51.175,97.067c0.002,0.015,0.001,0.029-0.004,0.044c-0.178,0-0.356,0-0.534,0  c-0.008-0.025-0.022-0.044-0.05-0.05c-0.003-0.011-0.004-0.022-0.003-0.033C50.781,97.047,50.976,97.089,51.175,97.067z"></path>	<path fill="#828282" d="M70.645,78.624c0.014-0.005,0.029-0.008,0.044-0.011c0,0.129,0,0.259,0,0.388  c-0.068-0.015-0.052-0.069-0.051-0.114C70.638,78.799,70.642,78.712,70.645,78.624z"></path>	<path fill="#74C044" d="M52.969,0.004C53.551,0.002,54.134,0.001,54.717,0c0.356,0.063,0.711,0.127,1.067,0.19  c0.094,0.026,0.184,0.071,0.285,0.068c0.124,0.066,0.261,0.093,0.395,0.128c0.028,0.006,0.056,0.013,0.083,0.019  c0.013,0.022,0.033,0.033,0.059,0.029c0.032,0.008,0.064,0.016,0.096,0.024c0.091,0.058,0.193,0.088,0.296,0.115  c0.063,0.03,0.123,0.069,0.196,0.07c0.013,0.007,0.026,0.014,0.039,0.021c0.034,0.012,0.068,0.024,0.102,0.036  c0.056,0.051,0.123,0.077,0.197,0.086c0.039,0.038,0.087,0.058,0.141,0.062c0.205,0.121,0.419,0.226,0.636,0.323  c0.006,0.012,0.016,0.016,0.029,0.012c0.079,0.083,0.185,0.125,0.281,0.18c0.34,0.197,0.643,0.447,0.971,0.661  c0,0,0.009,0.006,0.009,0.006c0.08,0.117,0.196,0.192,0.308,0.272c0.193,0.192,0.385,0.385,0.578,0.577  c0.079,0.112,0.156,0.227,0.271,0.308c0,0,0.006,0.009,0.006,0.009c0.09,0.158,0.196,0.304,0.33,0.429c0,0,0.006,0.013,0.006,0.013  c0.094,0.185,0.204,0.359,0.338,0.518c0,0,0.002,0.012,0.002,0.012c0.012,0.069,0.05,0.124,0.095,0.176  c0.016,0.03,0.032,0.06,0.048,0.09c-0.003,0.022,0.009,0.035,0.029,0.042c0.085,0.201,0.176,0.399,0.29,0.585  c0.008,0.075,0.037,0.14,0.085,0.198c0.018,0.104,0.059,0.199,0.115,0.287c0.013,0.088,0.038,0.171,0.091,0.243  c0.013,0.121,0.056,0.231,0.108,0.339c0,0.073,0.032,0.136,0.06,0.201c0.013,0.046,0.027,0.093,0.04,0.139  c0.05,0.198,0.099,0.396,0.149,0.594c-0.006,0.016-0.002,0.028,0.011,0.038c0.012,0.066,0.025,0.133,0.037,0.199  c0.024,0.144,0.022,0.293,0.078,0.431c0.005,0.049,0.009,0.097,0.014,0.146c0.051,0.536,0.065,1.073,0.041,1.61  c-0.009,0.192-0.026,0.383-0.039,0.575c-0.004,0.049-0.009,0.097-0.013,0.146c-0.057,0.136-0.049,0.285-0.078,0.427  c-0.024,0.05-0.029,0.102-0.025,0.156c-0.047,0.072-0.046,0.155-0.055,0.236c-0.043,0.078-0.059,0.163-0.068,0.249  c-0.007,0.032-0.013,0.063-0.02,0.095c-0.051,0.054-0.048,0.125-0.059,0.191c-0.064,0.14-0.114,0.284-0.146,0.435  c-0.042,0.061-0.073,0.126-0.077,0.201c-0.033,0.041-0.057,0.085-0.055,0.14c-0.02,0.011-0.032,0.026-0.028,0.051  c-0.012,0.031-0.023,0.062-0.035,0.093c-0.058,0.093-0.112,0.187-0.133,0.296c0,0,0.002-0.002,0.002-0.002  c-0.023,0.009-0.035,0.025-0.032,0.05c-0.032,0.043-0.064,0.086-0.065,0.143c-0.086,0.103-0.133,0.229-0.2,0.342  c-0.045,0.017-0.041,0.06-0.05,0.096c-0.178,0.263-0.357,0.526-0.534,0.79c-0.107,0.158-0.252,0.287-0.341,0.458  c-0.327,0.324-0.644,0.659-0.983,0.969c-0.387,0.354-0.813,0.66-1.263,0.929c-0.55,0.328-1.13,0.602-1.734,0.809  c-0.327,0.112-0.663,0.223-1.01,0.276c-0.07-0.006-0.138-0.004-0.196,0.043l-0.024-0.002c0,0-0.023,0.008-0.023,0.008  c-0.084-0.005-0.167-0.006-0.241,0.044c0,0-0.002,0-0.002,0c-0.13-0.002-0.259-0.003-0.382,0.051c0,0-0.006,0.001-0.006,0.001  c-0.194-0.003-0.389-0.002-0.579,0.046c0,0-0.004,0.003-0.004,0.003c-0.258,0-0.517,0.001-0.775,0.001  c-0.017-0.002-0.034-0.003-0.051-0.005c-0.175-0.048-0.353-0.047-0.532-0.044c-0.017-0.001-0.035-0.003-0.052-0.004  c-0.107-0.052-0.222-0.05-0.337-0.046c0,0-0.005-0.001-0.005-0.001c-0.09-0.05-0.187-0.052-0.286-0.049  c0,0-0.003-0.001-0.003-0.001c-0.073-0.049-0.156-0.052-0.24-0.048c-0.354-0.036-0.687-0.155-1.016-0.275  c-0.964-0.352-1.851-0.848-2.66-1.481c-0.101-0.079-0.204-0.157-0.306-0.236c-0.035-0.059-0.083-0.103-0.145-0.131  c-0.216-0.215-0.432-0.43-0.647-0.645c-0.029-0.061-0.071-0.109-0.13-0.143c-0.309-0.403-0.625-0.802-0.885-1.241  c-0.623-1.049-1.011-2.176-1.166-3.388c-0.241-1.892,0.074-3.684,0.947-5.378c0.293-0.569,0.655-1.095,1.068-1.585  c0.031-0.037,0.056-0.078,0.084-0.117c0.072-0.045,0.125-0.108,0.164-0.183c0.158-0.158,0.316-0.316,0.474-0.474  c0.075-0.04,0.137-0.092,0.182-0.164c0.164-0.128,0.327-0.259,0.493-0.385c0.967-0.735,2.043-1.242,3.215-1.552  c0.031-0.008,0.061-0.019,0.091-0.029c0.022,0.009,0.038-0.001,0.05-0.019c0.047-0.007,0.094-0.013,0.142-0.02  c0.038,0.008,0.072-0.001,0.1-0.029c0.066,0.005,0.131,0,0.193-0.025c0.037,0.01,0.069,0.001,0.096-0.024  c0.066,0.006,0.131,0.001,0.194-0.022c0.038,0.01,0.071,0.002,0.099-0.026c0.041-0.004,0.096,0.027,0.11-0.045  c0.061,0.067,0.119,0.03,0.178-0.005C52.906,0.01,52.937,0.007,52.969,0.004z"></path>	<path fill="#020101" d="M54.862,23.303c0.049,0.004,0.099,0.008,0.148,0.012c0.11,0.038,0.221,0.058,0.338,0.041  c0.049,0.003,0.098,0.006,0.146,0.009c0.143,0.043,0.288,0.057,0.436,0.04c0.143,0.005,0.287,0.01,0.43,0.015  c0.09,0.043,0.188,0.031,0.283,0.033c0.361,0.005,0.721,0.006,1.082,0.008c0.003,0.097,0.009,0.194,0.009,0.29  c0,7.564,0,15.127,0.001,22.691c0,1.785-0.523,3.407-1.541,4.864c-0.689,0.987-1.562,1.784-2.6,2.404  c-0.424,0.253-0.864,0.471-1.319,0.649c-0.215,0.084-0.441,0.161-0.668,0.221c-0.07-0.01-0.132,0.01-0.188,0.05  c0,0-0.008,0.001-0.008,0.001c-0.069-0.013-0.131,0.007-0.187,0.047c0,0-0.007,0.001-0.007,0.001  c-0.069-0.01-0.134-0.002-0.191,0.044c0,0-0.005,0.001-0.005,0.001c-0.099-0.01-0.193,0.007-0.282,0.052  c0,0-0.008,0.001-0.008,0.001c-0.099-0.012-0.195,0.002-0.286,0.045c0,0-0.006,0.001-0.006,0.001  c-0.147-0.01-0.292,0.001-0.433,0.047c-0.094,0.003-0.188,0.006-0.282,0.009c-0.145-0.002-0.291-0.006-0.436-0.006  c-4.924,0-9.848,0-14.772,0c-1.569,0-3.137-0.001-4.706,0.002c-0.084,0-0.179-0.036-0.252,0.04c-0.281,0.147-0.574,0.278-0.84,0.45  c-0.119,0.077-0.251,0.114-0.367,0.185c-0.348,0.214-0.731,0.365-1.07,0.598c-0.105,0.072-0.25,0.093-0.359,0.171  c-0.291,0.209-0.649,0.299-0.932,0.528c-0.097,0.079-0.251,0.081-0.357,0.161c-0.301,0.227-0.656,0.36-0.981,0.54  c-0.282,0.156-0.56,0.334-0.864,0.456c-0.136,0.055-0.279,0.111-0.386,0.227c-0.038,0.041-0.103,0.059-0.158,0.081  c-0.169,0.068-0.337,0.131-0.473,0.261c-0.091,0.087-0.232,0.08-0.335,0.15c-0.331,0.226-0.696,0.399-1.048,0.582  c-0.33,0.172-0.657,0.357-0.987,0.529c-0.307,0.16-0.635,0.288-0.917,0.505c-0.141,0.108-0.343,0.143-0.503,0.239  c-0.335,0.2-0.69,0.365-1.027,0.56c-0.364,0.211-0.757,0.369-1.099,0.619c-0.084,0.062-0.204,0.072-0.296,0.126  c-0.261,0.153-0.528,0.296-0.802,0.426c-0.098,0.047-0.181,0.126-0.271,0.19c-0.024-0.015-0.048-0.03-0.071-0.044  c0.123-0.571,0.33-1.117,0.523-1.665c0.666-1.89,1.263-3.803,1.927-5.693c0.02-0.056,0.014-0.123,0.052-0.176  c0.012-0.018,0.01-0.031-0.005-0.037c-0.007-0.003-0.015-0.007-0.022-0.007c-0.689-0.001-1.378-0.002-2.067-0.003  c-0.031-0.001-0.062-0.002-0.093-0.003c-0.141-0.047-0.286-0.056-0.433-0.048c0,0-0.006-0.001-0.006-0.001  c-0.091-0.044-0.186-0.057-0.286-0.045c0,0-0.008-0.001-0.008-0.001c-0.089-0.045-0.183-0.062-0.282-0.052  c0,0-0.005-0.001-0.005-0.001c-0.056-0.046-0.121-0.054-0.19-0.044c0,0-0.007-0.001-0.007-0.001  c-0.057-0.04-0.119-0.059-0.189-0.047c-0.274-0.025-0.537-0.108-0.784-0.212c-0.315-0.134-0.635-0.255-0.941-0.413  c-1.358-0.698-2.44-1.697-3.275-2.968c-0.45-0.684-0.775-1.425-1.008-2.211c-0.083-0.28-0.096-0.57-0.18-0.846  c0.014-0.027,0.006-0.047-0.018-0.062c-0.15-0.907-0.113-1.823-0.113-2.736C8.002,34.679,8.004,24.177,8,13.674  C8,11.969,8.45,10.404,9.372,8.973c0.193-0.299,0.423-0.57,0.629-0.859c0.025-0.003,0.038-0.016,0.037-0.042  c0.265-0.269,0.53-0.538,0.795-0.807c0.056-0.026,0.104-0.061,0.134-0.117c0.295-0.211,0.575-0.443,0.88-0.641  c0.869-0.566,1.816-0.944,2.822-1.18c0.023,0.01,0.04,0.005,0.052-0.018c0.065,0.003,0.129-0.001,0.19-0.029  c0.025,0.01,0.045,0.006,0.058-0.019c0.062,0.007,0.121-0.002,0.18-0.021c0.045,0.007,0.088,0.008,0.122-0.03  c0.09,0.014,0.179-0.002,0.267-0.02c0.06,0.008,0.119,0.013,0.17-0.03c0.219,0.01,0.437-0.001,0.655-0.017  c0.089,0.003,0.178,0.008,0.266,0.008c2.638,0,5.275,0,7.913,0c4.96,0,9.919-0.001,14.879-0.001c0.04,0.394,0.009,0.79,0.023,1.184  c0.048,1.384,0.245,2.746,0.609,4.083c0.021,0.077,0.048,0.153,0.073,0.23c-0.008,0.024,0.002,0.04,0.022,0.051  c0.03,0.201,0.099,0.391,0.172,0.58c-0.008,0.024,0.002,0.039,0.023,0.05c-0.005,0.035,0.002,0.068,0.026,0.095  c-0.007,0.023,0.003,0.038,0.023,0.047c0.108,0.431,0.289,0.836,0.462,1.242c0.122,0.288,0.235,0.581,0.403,0.847  c0.012,0.075,0.045,0.139,0.097,0.194c0.073,0.215,0.196,0.404,0.305,0.6c0.576,1.038,1.251,2.007,2.025,2.907  c0.042,0.048,0.088,0.092,0.133,0.138c0.028,0.056,0.063,0.105,0.121,0.134c0.134,0.184,0.291,0.346,0.461,0.497  c0.147,0.188,0.317,0.352,0.502,0.502c0.484,0.501,1.027,0.933,1.577,1.358c1.016,0.785,2.119,1.429,3.282,1.968  c1.024,0.475,2.088,0.838,3.183,1.106c0.504,0.123,1.018,0.203,1.528,0.299c0.063,0.012,0.129,0.004,0.194,0.005  C54.727,23.305,54.792,23.319,54.862,23.303z M17.663,59.823c0.138-0.071,0.225-0.114,0.31-0.16  c3.678-1.976,7.356-3.952,11.032-5.93c0.168-0.09,0.333-0.138,0.527-0.138c6.602,0.004,13.205,0.004,19.807,0.003  c0.479,0,0.954-0.049,1.421-0.149c3.339-0.714,5.687-3.622,5.687-7.037c0-7.112,0-14.224,0-21.336c0-0.057,0.001-0.113,0-0.17  c-0.003-0.177-0.004-0.177-0.189-0.186c-1.272-0.058-2.526-0.235-3.761-0.544c-5.901-1.473-10.784-5.755-13.026-11.421  c-0.643-1.625-1.056-3.306-1.226-5.046c-0.035-0.362-0.063-0.725-0.082-1.088c-0.009-0.177-0.009-0.177-0.197-0.181  c-0.016,0-0.032,0-0.049,0c-7.161,0-14.321-0.001-21.482,0.001c-0.748,0-1.481,0.112-2.194,0.346  c-2.979,0.977-4.955,3.707-4.955,6.849c0,10.866,0,21.733,0.001,32.599c0,0.226,0.007,0.453,0.023,0.679  c0.134,1.93,0.922,3.551,2.353,4.846c1.351,1.222,2.954,1.824,4.775,1.837c1.011,0.007,2.023,0.001,3.034,0.002  c0.078,0,0.16-0.022,0.256,0.033C19.047,55.679,18.363,57.728,17.663,59.823z"></path>	<path fill="#020202" d="M10.785,88.128c-0.263,0.791-0.527,1.582-0.789,2.373c-0.57,1.725-1.142,3.45-1.707,5.177  c-0.134,0.411-0.325,0.772-0.662,1.06c-0.124,0.106-0.275,0.094-0.395,0.178c-0.242,0.019-0.484,0.025-0.726,0.002  c-0.199,0.004-0.346-0.1-0.488-0.223c-0.31-0.268-0.449-0.63-0.57-1.005c-0.318-0.981-0.626-1.966-0.967-2.939  c-0.179-0.512-0.362-1.022-0.523-1.539c-0.28-0.903-0.586-1.797-0.884-2.694c-0.012-0.037-0.003-0.081-0.04-0.107  c-0.047-0.033-0.095-0.032-0.112,0.028c-0.013,0.045-0.006,0.096-0.003,0.145c0.055,1.171,0.102,2.342,0.168,3.512  c0.072,1.268,0.09,2.537,0.076,3.806c-0.004,0.364-0.187,0.645-0.474,0.852c-0.092,0.066-0.18,0.16-0.31,0.164  c-0.226,0.027-0.452,0.007-0.678-0.001c-0.226-0.007-0.426-0.099-0.609-0.215c-0.437-0.278-0.726-0.68-0.876-1.17  c-0.05-0.164-0.035-0.351-0.035-0.527c-0.002-3.54-0.001-7.08-0.001-10.619c0-0.064,0.009-0.128,0.014-0.193  c0.082-0.043,0.172-0.03,0.259-0.031c0.351-0.002,0.702-0.004,1.052,0.026c0.997,0.142,1.842,0.575,2.505,1.337  c0.574,0.66,0.984,1.412,1.23,2.254c0.142,0.487,0.297,0.971,0.448,1.456c0.304,0.979,0.609,1.957,0.914,2.935  c0.047,0.151,0.1,0.301,0.142,0.454c0.016,0.06,0.041,0.121,0.099,0.118c0.071-0.004,0.14-0.059,0.155-0.129  c0.022-0.098,0.061-0.189,0.086-0.284c0.105-0.415,0.252-0.816,0.37-1.227c0.166-0.578,0.362-1.148,0.531-1.726  c0.117-0.401,0.25-0.8,0.374-1.2c0.181-0.583,0.374-1.162,0.539-1.75c0.134-0.479,0.347-0.933,0.672-1.318  c0.408-0.482,0.899-0.836,1.548-0.918c0.16-0.009,0.32-0.025,0.48-0.026c0.562-0.003,1.125-0.002,1.688-0.001  c0.088,0,0.177-0.01,0.262,0.024c0.069,0.066,0.042,0.152,0.042,0.23c0.001,3.722-0.002,7.443,0.004,11.165  c0.001,0.536-0.265,0.915-0.658,1.221c-0.103,0.08-0.265,0.085-0.399,0.124c-0.198-0.003-0.396-0.006-0.594-0.009  c0,0,0.002,0,0.002,0c-0.049-0.03-0.099-0.064-0.151-0.004c-0.525-0.169-0.871-0.535-1.106-1.017  c-0.052-0.107-0.085-0.223-0.092-0.352c-0.063-1.116,0.008-2.23,0.063-3.344c0.037-0.751,0.076-1.501,0.111-2.252  c0.029-0.605,0.054-1.211,0.08-1.817c0.039-0.056,0.02-0.117,0.011-0.207C10.824,88.007,10.772,88.053,10.785,88.128z M2.88,87.941  c0.009,0.122,0.015,0.223,0.024,0.325c0.003,0.035,0.025,0.055,0.064,0.05c0.039-0.005,0.056-0.031,0.047-0.065  C2.99,88.153,2.975,88.051,2.88,87.941z"></path>	<path fill="#020202" d="M13.64,75.454c-0.194,0.039-0.332,0.143-0.387,0.34c-0.029,0.027-0.045,0.058-0.034,0.099  c-0.03,0.086-0.017,0.176-0.017,0.264c-0.001,0.961-0.001,1.922-0.001,2.882c0,0.753-0.276,1.389-0.816,1.911  c-0.208,0.201-0.459,0.337-0.707,0.479c-0.099,0.057-0.218,0.034-0.311,0.099c-0.058-0.011-0.112-0.002-0.157,0.04  c0,0,0.003,0,0.003,0c-0.195,0.009-0.392-0.006-0.582,0.051c-0.241-0.069-0.398-0.207-0.402-0.476  c-0.001-0.089-0.01-0.177-0.01-0.266c-0.001-3.701-0.001-7.402,0-11.104c0-0.113,0.006-0.226,0.02-0.338  c0.039-0.321,0.235-0.51,0.565-0.529c0.217-0.013,0.436-0.003,0.654-0.003c0.079,0.027,0.158,0.051,0.243,0.035  c0.857,0.166,1.558,0.58,2.112,1.265c0.269,0.333,0.481,0.696,0.686,1.065c0.714,1.282,1.418,2.571,2.126,3.856  c0.119,0.216,0.246,0.428,0.356,0.648c0.038,0.076,0.082,0.133,0.155,0.171c0.027,0.03,0.057,0.052,0.1,0.036  c0.031-0.001,0.062-0.003,0.094-0.004c0.029,0.012,0.047-0.002,0.059-0.027c0.139-0.109,0.165-0.253,0.164-0.424  c-0.006-1.194,0-2.389-0.006-3.583c-0.002-0.307,0.027-0.611,0.038-0.917c0.005-0.125,0.045-0.258,0.102-0.37  c0.148-0.292,0.249-0.616,0.517-0.834c0.027-0.004,0.042-0.018,0.042-0.047c0,0,0.005-0.006,0.005-0.006  c0.041-0.017,0.043-0.053,0.045-0.089c0.034-0.034,0.069-0.069,0.103-0.103c0.036,0,0.072-0.001,0.085-0.045  c0.312-0.333,0.72-0.478,1.15-0.572c0.155-0.034,0.314-0.053,0.475-0.059c0.193-0.007,0.323,0.062,0.391,0.244  c0.009,0.021,0.018,0.042,0.027,0.063c-0.002,0.089-0.005,0.178-0.005,0.266c0,3.7-0.001,7.401,0.002,11.101  c0,0.25-0.055,0.475-0.2,0.678c-0.106,0.149-0.262,0.232-0.418,0.316c-0.228,0.03-0.457,0.013-0.686,0.01  c-0.046-0.001-0.091-0.003-0.137-0.004c0,0-0.012,0.003-0.012,0.003c-0.073-0.036-0.15-0.055-0.232-0.045  c0,0-0.006-0.005-0.006-0.005c-0.056-0.042-0.119-0.059-0.189-0.049c-0.259-0.04-0.494-0.143-0.715-0.277  c-0.466-0.282-0.849-0.649-1.171-1.093c-0.22-0.303-0.382-0.634-0.576-0.949c-0.136-0.221-0.252-0.454-0.38-0.679  c-0.132-0.231-0.258-0.469-0.386-0.702c-0.11-0.199-0.211-0.404-0.334-0.597c-0.155-0.245-0.283-0.507-0.417-0.766  c-0.097-0.189-0.214-0.366-0.303-0.561c-0.083-0.183-0.239-0.316-0.434-0.39C13.836,75.367,13.738,75.407,13.64,75.454z"></path>	<path fill="#020101" d="M51.175,97.067c-0.199,0.022-0.394-0.02-0.591-0.039c-0.047-0.004-0.094-0.008-0.14-0.013  c-0.411-0.07-0.777-0.231-1.071-0.535c-0.005-0.027-0.019-0.042-0.048-0.041c0,0-0.006-0.005-0.006-0.005  c-0.03-0.055-0.088-0.066-0.139-0.088c-0.049-0.052-0.098-0.105-0.147-0.157c0.011-0.071-0.048-0.079-0.091-0.1  c-0.198-0.264-0.38-0.536-0.488-0.853c-0.089-0.257-0.11-0.525-0.142-0.791c-0.017-0.144-0.011-0.291-0.011-0.436  c0-3.177,0-6.354,0-9.53c0-0.024,0-0.049,0-0.073c0-0.232-0.015-0.207,0.209-0.207c1.665,0.001,3.33,0.002,4.995,0.003  c0.016,0,0.032-0.003,0.048-0.004c0.16,0.031,0.321,0.054,0.485,0.04c0.048,0.003,0.096,0.007,0.144,0.01  c0.061,0.033,0.126,0.049,0.196,0.033c0.556,0.103,1.104,0.238,1.606,0.507c0.657,0.352,1.189,0.835,1.524,1.512  c0.127,0.257,0.219,0.529,0.289,0.807c-0.012,0.027-0.003,0.046,0.02,0.062c0.078,0.481,0.096,0.966,0.053,1.45  c-0.084,0.937-0.389,1.78-1.107,2.429c-0.295,0.266-0.622,0.491-0.978,0.669c-0.048,0.024-0.059,0.049-0.037,0.092  c0.053,0.107,0.108,0.213,0.161,0.32c0.771,1.547,1.542,3.094,2.314,4.64c0.046,0.093,0.111,0.18,0.081,0.294  c-0.481,0.004-0.962,0.009-1.443,0.011c-0.377,0.001-0.753-0.001-1.13-0.002c-0.511-0.105-0.835-0.434-1.053-0.886  c-0.555-1.149-1.111-2.297-1.658-3.45c-0.072-0.152-0.151-0.216-0.325-0.21c-0.396,0.014-0.793,0.005-1.189,0.004  c-0.22,0-0.211-0.012-0.211,0.211c0,1.327,0,2.653,0,3.98C51.293,96.849,51.309,96.983,51.175,97.067z M51.293,88.348  c0,0.541,0,1.083,0,1.624c0,0.083-0.009,0.157,0.118,0.155c0.679-0.007,1.358,0.014,2.036-0.016  c0.742-0.033,1.228-0.469,1.392-1.194c0.092-0.409,0.085-0.82-0.033-1.222c-0.163-0.556-0.524-0.918-1.096-1.047  c-0.156-0.035-0.319-0.056-0.48-0.057c-0.582-0.007-1.163-0.004-1.745-0.002c-0.187,0-0.19,0.003-0.191,0.185  C51.292,87.298,51.293,87.823,51.293,88.348z"></path>	<path fill="#010101" d="M37.336,84.236c0.002,0.348,0.006,0.696,0.007,1.043c0.002,1.319,0.003,2.638,0.005,3.956  c0.052,0.114,0.155,0.058,0.231,0.058c1.019,0.005,2.038,0.003,3.057,0.003c0.315,0,0.631,0.002,0.946-0.002  c0.056-0.001,0.133,0.033,0.161-0.057c0.002-0.639,0.009-1.278,0.004-1.916c-0.003-0.346,0.036-0.69,0.117-1.021  c0.066-0.269,0.208-0.517,0.369-0.751c0.508-0.743,1.197-1.191,2.093-1.311c0.13-0.001,0.26-0.002,0.39-0.002  c0.002,0.081,0.007,0.161,0.007,0.242c0,3.122-0.004,6.244,0.003,9.366c0.002,0.93-0.328,1.708-1.007,2.336  c-0.377,0.349-0.81,0.601-1.322,0.699c-0.059-0.013-0.11,0.005-0.159,0.036c0,0,0.003,0,0.003,0  c-0.162-0.021-0.324,0.035-0.486,0.003c-0.001-1.374-0.005-2.747-0.003-4.121c0.001-0.331-0.093-0.618-0.33-0.855  c-0.198-0.198-0.436-0.308-0.714-0.309c-1.067-0.004-2.133-0.002-3.2-0.001c-0.16,0-0.162,0.005-0.163,0.184  c-0.002,0.711,0.006,1.422-0.006,2.133c-0.023,1.368-0.865,2.479-2.171,2.888c-0.023,0.007-0.045,0.019-0.067,0.029  c-0.084-0.007-0.165,0.004-0.239,0.049c0,0-0.006,0.001-0.006,0.001c-0.087,0.003-0.174,0.006-0.261,0.009  c-0.086,0.003-0.175,0.033-0.253-0.03c0.003-0.089,0.007-0.177,0.007-0.266c0-2.972,0.001-5.944-0.001-8.916  c0-0.396-0.001-0.791,0.076-1.181c0.031-0.034,0.03-0.069-0.001-0.102c0.135-0.494,0.4-0.915,0.742-1.287  c0.491-0.534,1.109-0.829,1.829-0.907C37.108,84.234,37.222,84.235,37.336,84.236z"></path>	<path fill="#020202" d="M26.558,81.576c-0.378-0.047-0.728-0.177-1.077-0.327c-0.883-0.379-1.547-1.002-2.069-1.792  c-0.362-0.548-0.598-1.15-0.728-1.791c-0.131-0.646-0.203-1.298-0.199-1.959c0.004-0.663,0-1.325,0.087-1.984  c0.057-0.433,0.121-0.867,0.264-1.277c0.085-0.243,0.185-0.487,0.307-0.722c0.179-0.345,0.372-0.676,0.618-0.976  c0.343-0.418,0.733-0.781,1.199-1.064c0.658-0.399,1.377-0.596,2.131-0.691c0.18,0.011,0.358-0.012,0.535-0.039  c0.081,0,0.162-0.001,0.244-0.001c0.209,0.028,0.419,0.049,0.631,0.038c0.064,0.004,0.129,0.008,0.193,0.012  c0.078,0.035,0.158,0.052,0.244,0.037c0.534,0.093,1.06,0.218,1.548,0.458c0.484,0.238,0.931,0.523,1.221,1.01  c0.314,0.527,0.32,1.058,0.102,1.611c-0.145,0.368-0.366,0.668-0.719,0.865c-0.174,0.097-0.359,0.153-0.552,0.19  c-0.194,0.001-0.387,0.002-0.581,0.003c-0.074-0.252-0.128-0.511-0.226-0.753c-0.201-0.5-0.52-0.886-1.085-0.998  c-0.042-0.079-0.103-0.117-0.194-0.094l-0.023-0.007c0,0-0.024,0.001-0.024,0.001c-0.307-0.081-0.614-0.081-0.921,0.003  c0,0-0.006,0.005-0.006,0.005c-0.069-0.011-0.131,0.006-0.187,0.045c-0.294,0.091-0.565,0.223-0.803,0.425  c-0.354,0.301-0.557,0.695-0.704,1.121c-0.048,0.141-0.108,0.283-0.104,0.438c-0.027,0.03-0.044,0.063-0.029,0.105  c-0.172,0.863-0.159,1.735-0.128,2.607c0.021,0.605,0.092,1.201,0.301,1.774c0.195,0.537,0.506,0.98,1.014,1.262  c0.215,0.119,0.445,0.208,0.695,0.228c0.093,0.037,0.187,0.061,0.288,0.041c0.226,0.02,0.452,0.018,0.679-0.002  c0.086,0.017,0.168,0.008,0.245-0.035c0.404-0.033,0.747-0.211,1.064-0.449c0.035,0.005,0.047-0.01,0.035-0.043  c0-0.612,0.001-1.225,0.001-1.837c-0.041-0.115-0.137-0.054-0.204-0.054c-0.621-0.007-1.242-0.006-1.863-0.008  c0-0.674,0-1.348,0-2.022c0.655-0.002,1.309-0.003,1.964-0.006c0.347-0.002,0.694-0.007,1.041-0.011  c1.09,0.106,1.856,0.908,2.016,1.857c0.023,0.135,0.025,0.274,0.026,0.411c0.003,0.38-0.001,0.76,0.002,1.141  c0.008,1.113-0.476,1.959-1.398,2.562c-0.206,0.135-0.418,0.274-0.646,0.361c-0.188,0.072-0.387,0.128-0.583,0.182  c-0.07-0.011-0.133,0.006-0.189,0.048c0,0-0.007,0.001-0.007,0.001c-0.07-0.01-0.136-0.001-0.193,0.044l-0.024-0.001  c0,0-0.023,0.007-0.023,0.007c-0.085-0.014-0.162,0.008-0.237,0.046c0,0-0.008,0.001-0.008,0.001  c-0.099-0.012-0.195,0.003-0.285,0.046c0,0-0.007,0.001-0.006,0.001c-0.226-0.014-0.446,0.05-0.67,0.053  c-0.539,0.011-1.078,0.021-1.615-0.047c-0.045-0.002-0.09-0.004-0.136-0.007c0,0-0.006-0.001-0.006-0.001  C26.722,81.579,26.642,81.564,26.558,81.576z"></path>	<path fill="#020202" d="M54.716,68.991c0.762,0.11,1.49,0.313,2.154,0.725c0.798,0.495,1.325,1.184,1.581,2.085  c0.024,0.085,0.045,0.17,0.067,0.255c-0.011,0.027-0.006,0.05,0.019,0.067c0.018,0.216,0.036,0.431,0.055,0.647  c-0.048,0.006-0.095,0.018-0.143,0.018c-0.896,0.001-1.791,0.001-2.687,0.001c-0.057,0-0.113,0.001-0.165-0.028  c0.02-0.142,0.007-0.28-0.042-0.415c0.003-0.004,0.007-0.009,0.01-0.013c-0.008-0.005-0.016-0.01-0.024-0.015  c-0.085-0.097-0.079-0.229-0.129-0.342c-0.121-0.275-0.371-0.398-0.584-0.564c-0.105-0.082-0.264-0.039-0.373-0.127  c-0.065-0.058-0.143-0.054-0.222-0.047c0,0,0.001-0.006,0.001-0.006c-0.228-0.064-0.457-0.062-0.685,0c0,0,0.001,0.006,0.001,0.006  c-0.085-0.009-0.168-0.008-0.242,0.043c-0.231,0.032-0.438,0.122-0.626,0.259c-0.023,0.002-0.036,0.014-0.04,0.037  c0,0-0.009,0.006-0.009,0.006c-0.029-0.002-0.043,0.013-0.047,0.04c-0.18,0.151-0.323,0.326-0.353,0.57  c-0.025,0.015-0.034,0.035-0.02,0.063c-0.025,0.129-0.034,0.257,0.009,0.384c-0.003,0.007-0.01,0.016-0.008,0.02  c0.006,0.013,0.016,0.024,0.024,0.036c0.058,0.291,0.271,0.466,0.488,0.629c0.397,0.3,0.859,0.473,1.326,0.628  c0.858,0.286,1.712,0.578,2.503,1.023c0.719,0.405,1.327,0.928,1.693,1.683c0.274,0.565,0.382,1.169,0.324,1.799  c-0.01,0.112-0.019,0.225-0.029,0.338c-0.025,0.016-0.032,0.036-0.019,0.063c-0.143,0.621-0.416,1.17-0.889,1.608  c-0.189,0.174-0.398,0.323-0.615,0.457c-0.47,0.292-0.987,0.463-1.527,0.567c-0.053-0.013-0.098,0.006-0.142,0.033  c0,0-0.006,0.001-0.006,0.001c-0.115-0.01-0.226,0.004-0.333,0.048c0,0-0.007,0.001-0.007,0.001  c-0.196-0.01-0.389,0.011-0.581,0.046c-0.258,0-0.516,0-0.774,0.001c-0.192-0.035-0.385-0.057-0.58-0.047  c0,0-0.006-0.001-0.006-0.001c-0.107-0.045-0.218-0.059-0.333-0.049c0,0-0.006-0.001-0.006-0.001  c-0.073-0.047-0.154-0.055-0.238-0.046c0,0-0.006-0.001-0.006-0.001c-0.057-0.041-0.119-0.057-0.189-0.045  c0,0-0.008-0.001-0.008-0.001c-0.056-0.04-0.118-0.06-0.188-0.049c-0.249-0.012-0.472-0.115-0.694-0.21  c-0.692-0.297-1.309-0.7-1.781-1.301c-0.362-0.461-0.613-0.98-0.714-1.551c-0.046-0.262-0.069-0.541-0.061-0.815  c0.016-0.017,0.032-0.034,0.048-0.051c0.177,0,0.353-0.001,0.529-0.001c0.112,0.029,0.225,0.049,0.341,0.035  c0.982,0.144,1.803,0.598,2.479,1.315c0.345,0.366,0.774,0.513,1.259,0.542c0.307,0.065,0.614,0.078,0.921-0.001  c0.473-0.08,0.874-0.264,1.076-0.739c0.012-0.028,0.033-0.052,0.05-0.078c0.025-0.014,0.035-0.034,0.024-0.062  c0.039-0.212,0.05-0.424-0.016-0.633c0.003-0.005,0.006-0.009,0.009-0.014c-0.008-0.005-0.017-0.01-0.025-0.015  c-0.126-0.429-0.44-0.677-0.82-0.871c-0.58-0.296-1.204-0.476-1.81-0.705c-0.729-0.276-1.464-0.548-2.106-1.011  c-0.475-0.343-0.903-0.731-1.208-1.238c-0.218-0.362-0.312-0.761-0.358-1.177c-0.044-0.397-0.039-0.806,0.059-1.178  c0.158-0.6,0.486-1.126,0.981-1.529c0.841-0.683,1.832-0.97,2.883-1.102c0.179,0.015,0.355-0.021,0.531-0.041  c0.212,0.001,0.423,0.001,0.635,0.002C54.455,68.984,54.584,69.006,54.716,68.991z"></path>	<path fill="#020202" d="M66.951,84.233c0.197,0.451,0.342,0.922,0.509,1.384c0.431,1.196,0.858,2.393,1.286,3.591  c0.505,1.414,1.004,2.829,1.517,4.24c0.129,0.354,0.263,0.702,0.299,1.081c0.054,0.577-0.123,1.088-0.438,1.562  c-0.214,0.322-0.509,0.554-0.84,0.739c-0.119,0.066-0.261,0.09-0.393,0.134c-0.1-0.009-0.195,0.009-0.287,0.048  c0,0-0.005,0.004-0.005,0.004c-0.096,0-0.193,0-0.289,0c-0.093-0.295-0.179-0.591-0.279-0.884c-0.14-0.409-0.222-0.837-0.387-1.238  c-0.027-0.067,0.016-0.145-0.03-0.211c-0.029-0.092-0.107-0.055-0.163-0.055c-1.262-0.002-2.523-0.002-3.785-0.001  c-0.06,0-0.133-0.028-0.172,0.05c-0.204,0.423-0.417,0.838-0.718,1.205c-0.232,0.283-0.509,0.503-0.81,0.707  c-0.289,0.196-0.607,0.3-0.941,0.374c-0.116-0.01-0.227,0.01-0.336,0.047c0,0-0.005,0.004-0.005,0.004  c-0.297-0.001-0.594,0-0.891-0.004c-0.068-0.001-0.147,0.031-0.2-0.043c0.131-0.448,0.308-0.88,0.457-1.322  c0.256-0.756,0.542-1.502,0.794-2.26c0.125-0.376,0.269-0.747,0.402-1.122c0.276-0.775,0.556-1.549,0.831-2.325  c0.225-0.632,0.445-1.266,0.674-1.896c0.139-0.381,0.277-0.762,0.423-1.141c0.145-0.377,0.366-0.712,0.593-1.043  c0.058-0.085,0.125-0.164,0.189-0.245c0.655-0.825,1.518-1.263,2.555-1.38C66.659,84.235,66.805,84.234,66.951,84.233z   M65.579,87.718c-0.015-0.003-0.031-0.006-0.046-0.009c-0.432,1.441-0.864,2.882-1.299,4.333c0.888,0,1.754,0,2.649,0  C66.444,90.587,66.012,89.152,65.579,87.718z"></path>	<path fill="#020202" d="M0.073,78.798c-0.01-0.077-0.019-0.153-0.029-0.23c0.032-0.086,0.015-0.176,0.015-0.264  c0.001-2.98,0.001-5.96,0.002-8.94c0-0.103-0.025-0.211,0.04-0.306c2.45-0.001,4.899-0.004,7.349-0.001  c0.774,0.001,1.129,0.599,1.126,1.122c-0.003,0.382-0.077,0.721-0.375,0.977c-0.101,0.087-0.224,0.15-0.336,0.224  c-0.016-0.02-0.031-0.02-0.046,0.001c0,0,0.001,0,0.001,0c-0.273,0.031-0.547,0.023-0.82,0.023c-0.903,0-1.807,0-2.71,0.001  c-0.104,0-0.21-0.012-0.312,0.023c-0.068,0.003-0.139-0.008-0.194,0.046c-0.22,0.003-0.345,0.159-0.48,0.299  c-0.028,0.003-0.043,0.018-0.041,0.047c0,0-0.005,0.007-0.005,0.007c-0.023,0.004-0.036,0.018-0.038,0.041  c-0.145,0.167-0.181,0.373-0.189,0.58c-0.009,0.248-0.011,0.497,0.017,0.747c0.049,0.439,0.483,0.852,0.887,0.857  c0.099,0.045,0.205,0.03,0.309,0.03c0.868,0.001,1.736,0.002,2.603,0.002c0.912,0.226,1.043,1.224,0.667,1.779  c-0.172,0.255-0.416,0.408-0.717,0.47c-0.923-0.001-1.846-0.003-2.769-0.003c-0.07,0-0.146-0.011-0.207,0.043  c-0.379,0.07-0.718,0.407-0.766,0.791C3,77.614,3.001,78.067,3.057,78.517c0.042,0.335,0.452,0.784,0.779,0.778  c0.058,0.044,0.124,0.047,0.192,0.033c0.088,0.004,0.177,0.011,0.265,0.011c1.05,0.001,2.1,0.016,3.15-0.005  c0.634-0.013,1.116,0.513,1.114,1.105c-0.002,0.484-0.146,0.859-0.561,1.125c-0.105,0.067-0.213,0.086-0.326,0.111  c-0.249-0.002-0.499-0.005-0.748-0.005c-1.32,0-2.64,0.002-3.96,0.003c-0.017-0.001-0.033-0.002-0.05-0.004  c-0.092-0.041-0.187-0.056-0.287-0.046c0,0-0.007-0.001-0.007-0.001c-0.057-0.04-0.12-0.058-0.19-0.047  c-0.435-0.077-0.808-0.271-1.12-0.584c-0.005-0.026-0.02-0.042-0.048-0.04c0,0-0.007-0.006-0.007-0.006  c-0.017-0.043-0.064-0.016-0.09-0.039c-0.099-0.101-0.198-0.202-0.297-0.303c0.006-0.064-0.047-0.077-0.088-0.1  c-0.234-0.346-0.484-0.68-0.589-1.1C0.139,79.203,0.077,79.007,0.073,78.798z"></path>	<path fill="#010101" d="M33.011,85.899c0.04,0.207,0.06,0.416,0.06,0.627c-0.007,0.015-0.013,0.029-0.02,0.044  c-0.045,0.034-0.09,0.068-0.135,0.102c-1.117-0.002-2.234-0.005-3.351-0.007c-0.055,0-0.115-0.009-0.15,0.052  c-0.03,0.002-0.043,0.021-0.048,0.048c-0.023,0.017-0.049,0.032-0.014,0.062c-0.001,1.269-0.003,2.539-0.004,3.808  c-0.001,1.083-0.016,2.167,0.005,3.25c0.016,0.786-0.181,1.489-0.661,2.112c-0.027,0.005-0.042,0.019-0.041,0.048  c0,0-0.005,0.007-0.005,0.007c-0.025,0.003-0.038,0.017-0.041,0.042c-0.365,0.367-0.772,0.668-1.274,0.822  c-0.07-0.01-0.133,0.007-0.189,0.048c0,0-0.007,0.001-0.007,0.001c-0.116-0.012-0.226,0.016-0.336,0.047  c-0.113,0.003-0.227,0.005-0.34,0.008c-0.095-0.02-0.091-0.104-0.101-0.17c-0.012-0.079-0.005-0.161-0.005-0.242  c0-3.195,0-6.39,0-9.586c0-0.109,0.027-0.228-0.092-0.301c-0.021-0.08-0.089-0.054-0.138-0.054  c-0.438-0.001-0.877,0.002-1.315,0.004c-0.145-0.022-0.288-0.052-0.436-0.045c-0.562-0.074-0.963-0.398-1.287-0.837  c-0.148-0.2-0.273-0.412-0.324-0.661c-0.05-0.242-0.066-0.487-0.076-0.732c-0.003-0.082,0.071-0.092,0.133-0.108  c0.081,0.001,0.161,0.004,0.242,0.004c2.574,0,5.149,0,7.723,0c0.113,0,0.225-0.005,0.338-0.007  c0.909,0.084,1.636,0.757,1.859,1.56C32.99,85.862,33.001,85.881,33.011,85.899z"></path>	<path fill="#010101" d="M40.879,79.331c0.513,0.095,0.937,0.339,1.279,0.734c0.347,0.401,0.52,0.867,0.551,1.392  c0.005,0.086-0.019,0.158-0.083,0.216c-0.534,0-1.068,0-1.602,0c-1.828,0.001-3.657,0.002-5.485,0.003  c-0.431-0.021-0.686-0.29-0.888-0.631c-0.048-0.081-0.079-0.165-0.076-0.266c0.005-0.169-0.015-0.339-0.015-0.508  c-0.001-3.364-0.001-6.727-0.001-10.091c0-0.081,0.002-0.162,0.001-0.243c-0.009-0.523,0.389-0.919,0.908-0.971  c1.254-0.127,2.065,0.794,2.063,1.817c-0.006,2.741-0.003,5.482,0,8.223c0,0.101-0.06,0.234,0.095,0.29  c0.068,0.035,0.142,0.018,0.213,0.019C38.853,79.322,39.866,79.295,40.879,79.331z"></path>	<path fill="#010101" d="M17.234,96.963c-0.179-0.052-0.25-0.178-0.248-0.357c0.001-0.073-0.001-0.145-0.001-0.218  c0-3.192,0-6.383,0.001-9.575c0-0.217-0.027-0.443,0.023-0.65c0.055-0.227,0.099-0.466,0.226-0.673  c0.103-0.168,0.2-0.341,0.327-0.494c0.386-0.465,0.875-0.756,1.471-0.864c0.069,0.016,0.13-0.011,0.192-0.034  c0.066-0.004,0.132-0.008,0.198-0.012c0.048,0,0.096,0.001,0.143,0.001c0.291,0.093,0.417,0.288,0.417,0.598  c-0.004,3.162-0.003,6.323-0.003,9.485c0,0.868-0.321,1.593-0.978,2.159c-0.228,0.196-0.454,0.409-0.777,0.453  c-0.058,0.008-0.111,0.057-0.166,0.087c-0.014-0.019-0.027-0.022-0.041,0c0,0-0.008,0.001-0.008,0.001  c-0.069-0.011-0.132,0.003-0.19,0.044c0,0-0.006,0.001-0.006,0.001C17.62,96.918,17.425,96.917,17.234,96.963z"></path>	<path fill="#010101" d="M44.471,81.62c-0.146-0.026-0.213-0.123-0.243-0.259c-0.021-0.096-0.024-0.192-0.024-0.289  c0-3.167,0-6.335,0-9.502c0-0.275,0.026-0.548,0.076-0.818c0.034-0.035,0.033-0.07-0.001-0.104  c0.104-0.232,0.183-0.475,0.333-0.687c0.455-0.641,1.059-1.032,1.849-1.113c0.114-0.001,0.227-0.002,0.341-0.003  c0.277,0.088,0.384,0.289,0.384,0.567c0,3.167,0.005,6.333-0.003,9.5c-0.002,0.956-0.433,1.701-1.197,2.268  c-0.238,0.177-0.507,0.263-0.78,0.351c-0.074-0.013-0.139,0.011-0.202,0.044c0,0,0.002,0,0.002,0  C44.827,81.58,44.645,81.56,44.471,81.62z"></path>	<path fill="#81C0C0" d="M29.558,54.914c0.074-0.076,0.168-0.04,0.252-0.04c1.569-0.002,3.137-0.002,4.706-0.002  c4.924,0,9.848,0,14.772,0c0.145,0,0.29,0.004,0.436,0.006c-0.112,0.065-0.236,0.04-0.355,0.041  c-1.221,0.002-2.441,0.001-3.662,0.001c-5.294,0-10.589,0-15.883,0C29.735,54.921,29.647,54.916,29.558,54.914z"></path>	<path fill="#828282" d="M41.743,89.238c-0.028,0.09-0.105,0.057-0.161,0.057c-0.315,0.004-0.631,0.002-0.946,0.002  c-1.019,0-2.038,0.002-3.057-0.003c-0.076,0-0.179,0.055-0.231-0.058c0.064,0.005,0.128,0.013,0.192,0.013  c1.337,0.001,2.673,0.001,4.01,0C41.614,89.248,41.679,89.241,41.743,89.238z"></path>	<path fill="#81C0C0" d="M7.622,71.444c-1.135-0.001-2.271-0.003-3.406-0.005c-0.08,0-0.16-0.008-0.24-0.012  c0.102-0.035,0.207-0.023,0.312-0.023c0.903-0.001,1.807,0,2.71-0.001c0.274,0,0.548,0.008,0.82-0.023  C7.764,71.437,7.69,71.431,7.622,71.444z"></path>	<path fill="#81C0C0" d="M15.823,54.873c0.689,0.001,1.378,0.002,2.067,0.003c0.007,0,0.015,0.004,0.022,0.007  c0.016,0.006,0.017,0.019,0.005,0.037c-0.547,0-1.095,0.003-1.642-0.001C16.124,54.918,15.969,54.931,15.823,54.873z"></path>	<path fill="#81C0C0" d="M26.938,81.629c0.537,0.068,1.076,0.058,1.615,0.047c-0.003,0.009-0.004,0.018-0.004,0.028  c-0.537,0.046-1.073,0.038-1.607-0.042C26.943,81.651,26.941,81.64,26.938,81.629z"></path>	<path fill="#81C0C0" d="M19.221,81.577c0.229,0.003,0.458,0.02,0.686-0.01c-0.223,0.111-0.453,0.064-0.683,0.032  C19.224,81.6,19.221,81.577,19.221,81.577z"></path>	<path fill="#81C0C0" d="M53.548,71.231c0.228-0.062,0.457-0.064,0.685,0C54.004,71.231,53.776,71.231,53.548,71.231z"></path>	<path fill="#81C0C0" d="M11.942,96.916c0.198,0.003,0.396,0.006,0.594,0.009C12.337,97.004,12.139,96.995,11.942,96.916z"></path>	<path fill="#81C0C0" d="M10.632,81.62c0.191-0.057,0.387-0.043,0.582-0.051C11.025,81.651,10.828,81.635,10.632,81.62z"></path>	<path fill="#81C0C0" d="M44.471,81.62c0.175-0.06,0.357-0.04,0.536-0.046C44.833,81.652,44.652,81.635,44.471,81.62z"></path>	<path fill="#81C0C0" d="M60.393,81.579c0.163-0.002,0.325-0.004,0.488-0.007C60.719,81.622,60.557,81.68,60.393,81.579z"></path>	<path fill="#81C0C0" d="M67.733,81.57c0.16,0.041,0.32-0.02,0.48,0.003c-0.133,0.068-0.277,0.053-0.418,0.054  C67.76,81.627,67.737,81.607,67.733,81.57z"></path>	<path fill="#81C0C0" d="M41.753,96.917c0.162,0.032,0.324-0.024,0.486-0.003C42.077,96.965,41.915,97.024,41.753,96.917z"></path>	<path fill="#81C0C0" d="M10.785,88.128c-0.013-0.075,0.039-0.121,0.075-0.204c0.01,0.09,0.029,0.151-0.011,0.207  C10.827,88.151,10.807,88.13,10.785,88.128z"></path>	<path fill="#81C0C0" d="M13.64,75.454c0.098-0.047,0.196-0.087,0.289,0.009C13.833,75.46,13.737,75.457,13.64,75.454z"></path>	<path fill="#81C0C0" d="M45.004,81.574c0.063-0.034,0.129-0.057,0.202-0.044C45.148,81.585,45.079,81.594,45.004,81.574z"></path>	<path fill="#81C0C0" d="M68.211,81.574c0.064-0.034,0.13-0.057,0.204-0.043C68.355,81.587,68.285,81.593,68.211,81.574z"></path>	<path fill="#81C0C0" d="M60.879,81.573c0.048-0.033,0.1-0.05,0.159-0.037C60.994,81.589,60.939,81.59,60.879,81.573z"></path>	<path fill="#81C0C0" d="M11.794,96.912c0.052-0.059,0.101-0.025,0.151,0.004C11.893,96.932,11.843,96.925,11.794,96.912z"></path>	<path fill="#81C0C0" d="M11.21,81.57c0.045-0.042,0.099-0.05,0.157-0.04C11.323,81.574,11.271,81.591,11.21,81.57z"></path>	<path fill="#81C0C0" d="M42.236,96.915c0.049-0.031,0.1-0.049,0.159-0.036C42.352,96.933,42.296,96.932,42.236,96.915z"></path>	<path fill="#828282" d="M29.353,86.827c-0.035-0.029-0.009-0.045,0.014-0.062C29.362,86.786,29.358,86.806,29.353,86.827z"></path>	<path fill="#81C0C0" d="M7.817,71.381c0.015-0.021,0.03-0.022,0.046-0.001C7.848,71.38,7.832,71.38,7.817,71.381z"></path>	<path d="M15.23,38.507c-0.015-4.742,3.763-8.757,8.806-8.765c4.947-0.008,8.675,4.099,8.699,8.754  c0.025,4.78-3.935,8.733-8.664,8.771C19.259,47.305,15.226,43.412,15.23,38.507z"></path>	<path fill="#010101" d="M18.008,29.564c0-0.126,0-0.239,0-0.352c-0.001-3.155-0.003-6.309-0.004-9.464  c0-1.149-0.002-2.297,0.005-3.446c0.01-1.598,1.049-2.894,2.602-3.255c0.269-0.063,0.542-0.084,0.818-0.084  c3.203,0,6.406,0.012,9.609-0.005c1.637-0.009,2.981,1.181,3.292,2.629c0.367,1.705-0.711,3.452-2.4,3.894  c-0.422,0.11-0.849,0.101-1.277,0.102c-1.901,0.002-3.802,0.001-5.703,0.001c-0.049,0-0.098,0.006-0.145-0.001  c-0.139-0.022-0.169,0.05-0.157,0.168c0.005,0.048,0.001,0.097,0.001,0.146c0,2.516,0,5.031,0,7.547c0,0.049,0,0.097,0,0.146  c-0.002,0.2-0.002,0.202-0.195,0.199c-0.388-0.006-0.776,0.004-1.164,0.029c-1.828,0.116-3.509,0.679-5.058,1.65  C18.173,29.502,18.121,29.559,18.008,29.564z"></path>	<path fill="#010000" d="M32.408,45.144c0.025-0.09,0.08-0.141,0.122-0.198c1.056-1.419,1.737-2.999,2.024-4.746  c0.081-0.495,0.115-0.996,0.144-1.496c0.01-0.178,0.012-0.18,0.193-0.181c0.841-0.001,1.683,0,2.524,0c1.464,0,2.928,0,4.393,0  c0.04,0,0.081,0,0.121,0c0.24,0.002,0.208-0.007,0.208-0.212c0-1.974-0.008-3.948,0.003-5.922c0.007-1.247,0.562-2.212,1.618-2.862  c2.009-1.238,4.653,0.023,4.974,2.362c0.048,0.353,0.024,0.711,0.024,1.067c0.003,1.974-0.005,3.948-0.003,5.921  c0.001,0.97,0.028,1.941,0.022,2.911c-0.012,1.811-1.438,3.377-3.324,3.375c-3.462-0.005-6.925,0.003-10.387,0.005  c-0.809,0-1.618-0.002-2.427-0.005C32.566,45.163,32.493,45.177,32.408,45.144z"></path></g></svg>